  http://www.shotpix.com/images/82407467551106422069.jpg


  
http://www.imdb.com/title/tt1853728/




Plot:With the help of his mentor, a slave-turned-bounty hunter sets out to rescue his wife from a brutal Mississippi plantation owner.
 


Director: 
Quentin Tarantino

 Writer: 
Quentin Tarantino
 
Stars:
 Jamie Foxx, Christoph Waltz and Leonardo DiCaprio

Genres:
 Action | Drama | Western 


Country:
USA 

Language:
English |German |French



Format                                   : AVI
Format/Info                              : Audio Video Interleave
File size                                : 1.70 GiB
Duration                                 : 2h 45mn
Overall bit rate                         : 1 474 Kbps
Writing library                          : VirtualDub build 32706/release

Video
ID                                       : 0
Format                                   : MPEG-4 Visual
Format profile                           : Advanced Simple@L5
Format settings, BVOP                    : 2
Format settings, QPel                    : No
Format settings, GMC                     : No warppoints
Format settings, Matrix                  : Default (H.263)
Muxing mode                              : Packed bitstream
Codec ID                                 : XVID
Codec ID/Hint                            : XviD
Duration                                 : 2h 45mn
Bit rate                                 : 1 335 Kbps
Width                                    : 640 pixels
Height                                   : 272 pixels
Display aspect ratio                     : 2.35:1
Frame rate                               : 29.970 fps
Color space                              : YUV
Chroma subsampling                       : 4:2:0
Bit depth                                : 8 bits
Scan type                                : Progressive
Compression mode                         : Lossy
Bits/(Pixel*Frame)                       : 0.256
Stream size                              : 1.54 GiB (91%)
Writing library                          : XviD 64

Audio
ID                                       : 1
Format                                   : MPEG Audio
Format version                           : Version 1
Format profile                           : Layer 3
Mode                                     : Joint stereo
Mode extension                           : MS Stereo
Codec ID                                 : 55
Codec ID/Hint                            : MP3
Duration                                 : 2h 45mn
Bit rate mode                            : Constant
Bit rate                                 : 128 Kbps
Channel(s)                               : 2 channels
Sampling rate                            : 48.0 KHz
Compression mode                         : Lossy
Stream size                              : 151 MiB (9%)
Alignment                                : Split accross interleaves
Interleave, duration                     : 33 ms (1.00 video frame)
Interleave, preload duration             : 500 ms
Writing library                          : LAME3.98.2


 
http://www.shotpix.com/images/30062618741367708059.png 
http://www.shotpix.com/images/03657993866928287410.png 
http://www.shotpix.com/images/88841041333100341810.png